<svg width="24" height="32" viewBox="0 0 24 32" fill="none" xmlns="http://www.w3.org/2000/svg">
<g clip-path="url(#clip0)">
<path d="M22.4395 12.2029L4.58779 19.9428C4.04683 20.1092 3.53187 20.0416 3.04293 19.7399C2.55398 19.4382 2.23668 19.0065 2.09104 18.4447C1.9454 17.883 2.01302 17.3472 2.2939 16.8375C2.57479 16.3277 2.98571 15.9896 3.52667 15.8232L21.3784 8.08322C21.9402 7.93757 22.4604 8.01039 22.9389 8.30168C23.4174 8.59297 23.7347 9.0247 23.8908 9.59687C24.0468 10.169 23.9792 10.71 23.6879 11.2198C23.3966 11.7295 22.9805 12.0572 22.4395 12.2029ZM20.4421 6.21065L2.59039 13.9506C2.04943 14.117 1.53447 14.0494 1.04553 13.7477C0.55658 13.446 0.239285 13.0143 0.093641 12.4525C-0.0520027 11.8908 0.0156175 11.355 0.296502 10.8453C0.577386 10.3355 0.988309 10.0078 1.52927 9.86215L19.381 2.09101C19.9428 1.94536 20.463 2.01819 20.9415 2.30947C21.42 2.60076 21.7373 3.03249 21.8934 3.60466C22.0494 4.17684 21.9818 4.7178 21.6905 5.22755C21.3992 5.73731 20.9831 6.06501 20.4421 6.21065ZM9.45645 4.21325L4.58779 5.96098C4.04683 6.12743 3.53187 6.06501 3.04293 5.77372C2.55398 5.48243 2.23668 5.0507 2.09104 4.47853C1.9454 3.90636 2.01302 3.36539 2.2939 2.85564C2.57479 2.34588 2.98571 2.01819 3.52667 1.87254L8.42654 0.0936044C8.9675 -0.0520395 9.48246 0.0207825 9.9714 0.31207C10.4604 0.603358 10.7776 1.03509 10.9233 1.60726C11.0689 2.17943 11.0013 2.7204 10.7204 3.23015C10.4395 3.73991 10.0182 4.0676 9.45645 4.21325ZM8.80105 20.2237C9.00912 20.0364 9.24839 19.9012 9.51887 19.818L19.381 16.0728C19.9428 15.9272 20.463 16 20.9415 16.2913C21.42 16.5826 21.7373 17.0143 21.8934 17.5865C22.0494 18.1587 21.9818 18.6996 21.6905 19.2094C21.3992 19.7191 20.9831 20.0468 20.4421 20.1925L12.0156 23.407C11.9948 23.6775 11.9844 23.8752 11.9844 24H13.9818C14.5436 24 15.0169 24.1977 15.4018 24.593C15.7867 24.9883 15.9792 25.4617 15.9792 26.013C15.9792 26.5644 15.7867 27.0325 15.4018 27.4175C15.0169 27.8024 14.5436 27.9948 13.9818 27.9948H9.98701C9.86217 27.9948 9.73733 27.9844 9.6125 27.9636C8.59299 27.8596 7.73473 27.4279 7.03772 26.6684C6.34072 25.909 5.99221 25.0195 5.99221 24C5.99221 23.1262 6.25229 22.3407 6.77244 21.6437C7.2926 20.9467 7.9688 20.4734 8.80105 20.2237ZM11.9844 31.9896C10.8817 31.9896 9.9402 31.7972 9.15996 31.4123C8.37973 31.0273 7.98961 30.554 7.98961 29.9922H15.9792C15.9792 30.554 15.5891 31.0273 14.8089 31.4123C14.0286 31.7972 13.0871 31.9896 11.9844 31.9896Z" fill="white"/>
</g>
<defs>
<clipPath id="clip0">
<rect width="24" height="31.9896" fill="white"/>
</clipPath>
</defs>
</svg>
