<svg width="25" height="25" viewBox="0 0 25 25" fill="none" xmlns="http://www.w3.org/2000/svg">
<path d="M10.6325 13.5035C11.062 14.0776 11.6099 14.5527 12.2391 14.8964C12.8683 15.2402 13.564 15.4446 14.2792 15.4958C14.9943 15.547 15.7121 15.4439 16.3839 15.1933C17.0556 14.9427 17.6656 14.5506 18.1725 14.0435L21.1725 11.0435C22.0833 10.1005 22.5873 8.83747 22.5759 7.52648C22.5645 6.2155 22.0387 4.96144 21.1116 4.0344C20.1846 3.10736 18.9305 2.58151 17.6195 2.57012C16.3085 2.55873 15.0455 3.0627 14.1025 3.97349L12.3825 5.68349" stroke="white" stroke-width="2" stroke-linecap="round" stroke-linejoin="round"/>
<path d="M14.6325 11.5035C14.2031 10.9294 13.6552 10.4543 13.026 10.1106C12.3968 9.76679 11.701 9.56237 10.9859 9.51116C10.2707 9.45994 9.55294 9.56312 8.88118 9.81371C8.20942 10.0643 7.59941 10.4564 7.09252 10.9635L4.09252 13.9635C3.18173 14.9065 2.67776 16.1695 2.68915 17.4805C2.70055 18.7915 3.22639 20.0455 4.15343 20.9726C5.08047 21.8996 6.33453 22.4255 7.64552 22.4369C8.9565 22.4483 10.2195 21.9443 11.1625 21.0335L12.8725 19.3235" stroke="white" stroke-width="2" stroke-linecap="round" stroke-linejoin="round"/>
</svg>
